<svg xmlns="http://www.w3.org/2000/svg" width="180" height="60" fill="none"><path fill="#fff" d="M19.374 58.278c-.805.322-1.871.584-3.2.785-1.287.241-2.433.362-3.44.362-3.097 0-5.431-.664-7-1.992-1.57-1.328-2.354-3.54-2.354-6.639V34.016H0V27.98h3.682l3.078-9.838h5.432v9.838h7.182v6.036h-7.182v15.27c0 1.609.301 2.695.905 3.258.644.564 1.489.845 2.535.845.483 0 1.106-.08 1.87-.241.765-.161 1.389-.342 1.872-.543v5.673ZM50.1 51.579c0 .603.18 1.066.543 1.388.362.282.764.422 1.207.422.402 0 .845-.08 1.328-.241.483-.161.865-.302 1.147-.423v5.432c-1.49.845-3.26 1.268-5.312 1.268-4.023 0-6.357-1.469-7-4.406-2.536 2.937-5.634 4.406-9.295 4.406-3.139 0-5.734-.845-7.786-2.535-2.012-1.69-3.018-4.144-3.018-7.363V27.98h8.812v19.615c0 1.57.443 2.877 1.328 3.923.925 1.006 2.092 1.51 3.5 1.51 1.57 0 2.917-.584 4.044-1.751 1.127-1.207 1.69-2.656 1.69-4.346v-18.95H50.1v23.598ZM63.517 32.507c2.535-3.42 5.814-5.13 9.837-5.13 3.139 0 5.714.845 7.726 2.535 2.052 1.69 3.078 4.144 3.078 7.363V58.82h-8.812V39.206c0-1.57-.463-2.857-1.388-3.863-.885-1.046-2.032-1.569-3.44-1.569-1.57 0-2.917.604-4.044 1.81-1.127 1.168-1.69 2.596-1.69 4.286v18.951h-8.812v-30.84h6.58l.965 4.526ZM88.906 15.366h8.933v6.941h-8.933v-6.94Zm.06 43.455v-30.84h8.813v30.84h-8.812ZM110.291 46.328c0 2.012.523 3.702 1.569 5.07 1.047 1.327 2.455 1.991 4.225 1.991 1.851 0 3.3-.563 4.346-1.69 1.086-1.166 1.629-2.876 1.629-5.13h8.329c0 2.857-.623 5.251-1.871 7.182-1.207 1.932-2.816 3.36-4.828 4.286-2.012.925-4.225 1.388-6.639 1.388h-.966c-4.506 0-8.087-1.328-10.743-3.984-2.655-2.695-3.983-6.417-3.983-11.165v-1.75c0-3.139.623-5.835 1.871-8.088 1.287-2.293 3.038-4.044 5.251-5.25 2.213-1.208 4.748-1.811 7.604-1.811h.966c2.374 0 4.567.523 6.579 1.569 2.052 1.006 3.681 2.495 4.888 4.466 1.248 1.931 1.871 4.225 1.871 6.88h-8.751c0-2.092-.463-3.762-1.388-5.009-.926-1.247-2.294-1.87-4.104-1.87-1.811 0-3.239.723-4.286 2.172-1.046 1.408-1.569 3.199-1.569 5.371v5.372ZM152.864 38c0-1.369-.442-2.475-1.328-3.32-.845-.845-2.233-1.268-4.164-1.268-1.127 0-2.092.201-2.897.604-.805.362-1.429.825-1.871 1.388-.402.563-.604 1.086-.604 1.569v.483h-8.51c-.08-.483-.12-.845-.12-1.087 0-1.73.563-3.279 1.69-4.647 1.166-1.368 2.776-2.434 4.828-3.199 2.052-.764 4.406-1.146 7.061-1.146h1.268c4.345 0 7.645.865 9.898 2.595 2.253 1.69 3.38 4.024 3.38 7.001v14.244c0 .724.161 1.267.483 1.63.362.361.784.542 1.267.542.402 0 .845-.08 1.328-.241.483-.161.865-.302 1.147-.423v5.432c-1.489.845-3.26 1.268-5.312 1.268-2.213 0-3.903-.443-5.069-1.328-1.167-.925-1.851-2.213-2.052-3.863-2.817 3.46-6.277 5.19-10.381 5.19-3.058 0-5.573-.623-7.545-1.87-1.971-1.248-2.957-3.621-2.957-7.122 0-2.857.805-5.03 2.414-6.518 1.65-1.53 3.923-2.555 6.82-3.078 2.897-.523 6.639-.785 11.226-.785V38Zm0 7c-3.822 0-6.679.382-8.57 1.147-1.851.724-2.776 1.931-2.776 3.621 0 1.328.362 2.273 1.086 2.837.764.523 1.911.784 3.44.784 1.046 0 2.092-.281 3.139-.845 1.046-.563 1.911-1.368 2.595-2.414a6.012 6.012 0 0 0 1.086-3.5V45Z"></path><path fill="#fff" fill-opacity="0.3" d="M179.737 0h-36.916l10.767 10.854h15.382v15.505l10.767 10.853V0Z"></path><path fill="#F40F0F" d="M175.633 4.135h-36.915l10.767 10.832h15.403v12.686l10.745 13.694V4.135ZM89.09 14.784c-.51 1.112-.765 2.404-.765 3.876 0 1.503.255 2.81.766 3.922.482.3 1.148.556 1.999.766.879.21 1.715.316 2.509.316.737 0 1.573-.106 2.51-.316.935-.21 1.601-.466 1.998-.766.51-1.112.766-2.42.766-3.922 0-.6-.071-1.262-.213-1.983-.142-.751-.326-1.382-.553-1.893-.425-.3-1.106-.556-2.041-.766-.908-.21-1.73-.316-2.467-.316-.794 0-1.616.105-2.467.316-.85.21-1.53.465-2.041.766Z"></path></svg>